# xmcd CD database file
#
# Track frame offsets:
#	150
#	17190
#	30120
#	46122
#	59455
#	76967
#	91840
#	103997
#	116982
#	127612
#	141122
#	158970
#	170860
#	186535
#
# Disc length: 2689 seconds
#
# Revision: 0
# Processed by: cddbd v1.5.1PL2 Copyright (c) Steve Scherf et al.
# Submitted via: CDex 1.51
#
DISCID=b90a7f0e
DTITLE=O Feras Do Baile - Contagiando No Forró
DYEAR=2000
DGENRE=Country
TTITLE0=Tikimdum, tikimdotro
TTITLE1=Tobas Bier
TTITLE2=Bombadinha
TTITLE3=Picolé Do Zé
TTITLE4=Mulher e Café
TTITLE5=Vem Pra Mim
TTITLE6=Casamento e Carro Velho
TTITLE7=Me Desculpa Eu
TTITLE8=Seu Rabine
TTITLE9=Mulher Do Interior
TTITLE10=Seu Alberto
TTITLE11=Não Cozinho Não
TTITLE12=Remelexo
TTITLE13=Gá, Gá, Gá
EXTD=YEAR: 2000
EXTT0=
EXTT1=
EXTT2=
EXTT3=
EXTT4=
EXTT5=
EXTT6=
EXTT7=
EXTT8=
EXTT9=
EXTT10=
EXTT11=
EXTT12=
EXTT13=
PLAYORDER=
